<svg id="Layer_1" data-name="Layer 1" xmlns="http://www.w3.org/2000/svg" viewBox="0 0 204.23 204.23"><defs><style>.cls-1,.cls-2{fill:none;stroke:#000;stroke-width:4.23px;}.cls-1{stroke-miterlimit:10;}.cls-2{stroke-linecap:round;stroke-linejoin:round;}</style></defs><title>order-confirmation-icons</title><path class="cls-1" d="M2.12,67.72V181a21.23,21.23,0,0,0,21.16,21.16H181A21.23,21.23,0,0,0,202.12,181V23.28A21.23,21.23,0,0,0,181,2.12H23.28A21.23,21.23,0,0,0,2.12,23.28V67.72Z"/><path class="cls-1" d="M137.25,67.72a49.17,49.17,0,1,0,14.06,34.39A49,49,0,0,0,137.25,67.72Z"/><line class="cls-1" x1="137.25" y1="67.72" x2="202.12" y2="67.72"/><line class="cls-1" x1="66.98" y1="67.72" x2="2.12" y2="67.72"/><rect class="cls-2" x="155.83" y="21.16" width="23.57" height="23.57" rx="2" ry="2"/></svg>