<svg id="Layer_1" data-name="Layer 1" xmlns="http://www.w3.org/2000/svg" viewBox="0 0 204.23 204.23"><defs><style>.cls-1{fill:none;stroke:#000;stroke-linejoin:round;stroke-width:4.23px;}</style></defs><title>order-confirmation-icons</title><path class="cls-1" d="M144,202.12V113.39h18.79V87H143.41s-3.2-25.51,19.34-16.18L175.21,46s-32.15-14.64-52.74,1.9c-6.75,5.43-12,12.82-12.47,21.47V87H90.13v26.4H110v88.72H23.28A21.23,21.23,0,0,1,2.12,181V23.28A21.23,21.23,0,0,1,23.28,2.12H181a21.23,21.23,0,0,1,21.16,21.16V181A21.23,21.23,0,0,1,181,202.12H144Z"/></svg>