<svg id="Layer_1" data-name="Layer 1" xmlns="http://www.w3.org/2000/svg" viewBox="0 0 203.54 167.7"><defs><style>.cls-1{fill:none;stroke:#000;stroke-linecap:round;stroke-linejoin:round;stroke-width:4.54px;}</style></defs><title>order-confirmation-icons</title><path class="cls-1" d="M200.42,21.69a3.92,3.92,0,0,0-3.64-1.45c-0.82.12-1.86,0.33-3.21,0.61s-2.78.64-4.48,1.06a43.21,43.21,0,0,0,1.7-4.68c0.81-2.67,1.47-5.52,2.16-8.53a3.93,3.93,0,0,0-5.73-4.32,98.8,98.8,0,0,1-14.65,6.92,46.91,46.91,0,0,1-9.48,2.3,41,41,0,0,0-12.54-8.16A42.35,42.35,0,0,0,134.3,2.27,52.38,52.38,0,0,0,114,6.57a32.19,32.19,0,0,0-9,5.92A43.9,43.9,0,0,0,94.87,26.35a40.9,40.9,0,0,0-4,17.17c0,0.62,0,1.26,0,1.88l-0.3-.08a208.73,208.73,0,0,1-29-10.5,76.31,76.31,0,0,1-16.7-11.06A87.9,87.9,0,0,1,28.62,5.87a3.92,3.92,0,0,0-6-.61,59.16,59.16,0,0,0-4.81,5.31,28.54,28.54,0,0,0-4.56,8,37,37,0,0,0-1.89,9.27c-0.22,2.31-.36,4.8-0.36,7.37,0,5.67.7,11.75,3.13,17.25a3.93,3.93,0,0,0-3.46,3.61c-0.1,1.48-.16,2.93-0.16,4.34,0,12.79,4.07,23.2,10.47,30.43,0.63,0.71,1.27,1.36,1.94,2,0,0,0,.05,0,0.09,0,0.26,0,.51,0,0.77a28.74,28.74,0,0,0,3.41,13.51,38.66,38.66,0,0,0,14.18,14.63,47.84,47.84,0,0,0,6.8,3.43,79.55,79.55,0,0,1-24.75,3.89c-3,0-5.69-.16-8.16-0.3s-4.71-.31-6.81-0.31l-1.48,0a3.87,3.87,0,0,0-3,1.57,4,4,0,0,0-.68,3.29c1.15,4.73,4,9,7.87,12.85,5.85,5.71,14.2,10.4,24.22,13.76a108,108,0,0,0,34.29,5.36,121,121,0,0,0,57.75-14.68,101.29,101.29,0,0,0,41-42.78,151.72,151.72,0,0,0,8.95-22.18c2.59-8.31,4.46-17.08,4.46-25.18a41.29,41.29,0,0,0-.73-8c2.22-1.6,4.21-3.16,6-4.73a47,47,0,0,0,8.71-10A70.43,70.43,0,0,0,201,25.58,3.92,3.92,0,0,0,200.42,21.69Z"/></svg>