<svg id="Layer_1" data-name="Layer 1" xmlns="http://www.w3.org/2000/svg" viewBox="0 0 204.23 204.23"><defs><style>.cls-1{fill:none;stroke:#000;stroke-linecap:round;stroke-linejoin:round;stroke-width:4.23px;}</style></defs><title>order-confirmation-icons</title><path class="cls-1" d="M2.12,102.12Q2.9,59.54,32.19,31T102.12,2.12Q145.87,2.9,173.8,32t28.32,70.12Q201.34,144.3,172,173t-69.92,29.1A95.81,95.81,0,0,1,74,197.82a109.23,109.23,0,0,0,5.47-9.77q3.13-6.64,7.81-25,1.17-5.08,3.52-13.67,2.73,4.69,9.37,8.59,17.58,8.2,37.11-1.56,20.31-11.72,28.12-36.33,7-25.78-1.76-47.85T132.19,40.4q-28.52-8.2-55.47,1.76T39.23,76.34a79,79,0,0,0-3.32,17.77,83.75,83.75,0,0,0,.59,17.19,33.77,33.77,0,0,0,5.86,15,30,30,0,0,0,12.5,10.16,3.28,3.28,0,0,0,3.12,0q1.56-.78,3.12-6.25t1.17-7.42q-0.39-.78-1.56-2.73-8.2-13.28-5.47-27.93a49,49,0,0,1,12.11-24.8,54.34,54.34,0,0,1,33.79-14.06q19.34-1.17,33,10.55a42.3,42.3,0,0,1,9.57,20.7,63.37,63.37,0,0,1,0,23.24,69.4,69.4,0,0,1-7.62,20.9q-9.77,15.23-23,15.62a17.18,17.18,0,0,1-12.7-6.05,13.63,13.63,0,0,1-2.93-13.09q0.78-4.3,4.69-16.8t4.3-18.75q-1.17-14.84-13.67-15.23Q83,75.56,78.29,83.17a35.26,35.26,0,0,0-5.08,17.38q1.17,11.33,3.52,15.62-4.3,17.58-6.64,28.12-0.78,2.73-4.3,16.8t-3.91,21.48v10.94q-27.73-12.89-43.75-37.3a96.55,96.55,0,0,1-16-54.1h0Z"/></svg>